<svg xmlns="http://www.w3.org/2000/svg" width="256" height="256" viewBox="0 0 256 256">
  <defs>
    <linearGradient id="bg" x1="0%" y1="0%" x2="100%" y2="100%">
      <stop offset="0%" style="stop-color:#6366f1"/>
      <stop offset="100%" style="stop-color:#8b5cf6"/>
    </linearGradient>
  </defs>
  <!-- Background -->
  <rect width="256" height="256" rx="48" fill="url(#bg)"/>
  <!-- Diagram shapes -->
  <rect x="40" y="60" width="60" height="40" rx="8" fill="white" opacity="0.9"/>
  <rect x="156" y="60" width="60" height="40" rx="8" fill="white" opacity="0.9"/>
  <rect x="98" y="140" width="60" height="40" rx="8" fill="white" opacity="0.9"/>
  <!-- Connection lines -->
  <path d="M100 80 L156 80" stroke="white" stroke-width="3" fill="none" opacity="0.8"/>
  <path d="M70 100 L128 140" stroke="white" stroke-width="3" fill="none" opacity="0.8"/>
  <path d="M186 100 L128 140" stroke="white" stroke-width="3" fill="none" opacity="0.8"/>
  <!-- Arrow heads -->
  <polygon points="150,76 156,80 150,84" fill="white" opacity="0.8"/>
  <polygon points="124,136 128,140 132,136" fill="white" opacity="0.8" transform="rotate(-30,128,138)"/>
  <polygon points="124,136 128,140 132,136" fill="white" opacity="0.8" transform="rotate(30,128,138)"/>
  <!-- D letter -->
  <text x="128" y="220" font-family="Arial, sans-serif" font-size="48" font-weight="bold" fill="white" text-anchor="middle" opacity="0.9">D</text>
</svg>
